<svg width="19" height="19" viewBox="0 0 19 19" fill="none" xmlns="http://www.w3.org/2000/svg">
<g clip-path="url(#clip0_5_145)">
<path d="M15.0228 2.60751H11.8878C11.5728 1.73751 10.7478 1.10751 9.7728 1.10751C8.7978 1.10751 7.9728 1.73751 7.6578 2.60751H4.5228C3.6978 2.60751 3.0228 3.28251 3.0228 4.10751V14.6075C3.0228 15.4325 3.6978 16.1075 4.5228 16.1075H15.0228C15.8478 16.1075 16.5228 15.4325 16.5228 14.6075V4.10751C16.5228 3.28251 15.8478 2.60751 15.0228 2.60751ZM9.7728 2.60751C10.1853 2.60751 10.5228 2.94501 10.5228 3.35751C10.5228 3.77001 10.1853 4.10751 9.7728 4.10751C9.3603 4.10751 9.0228 3.77001 9.0228 3.35751C9.0228 2.94501 9.3603 2.60751 9.7728 2.60751ZM9.7728 13.8575L6.0228 10.1075H8.2728V7.10751H11.2728V10.1075H13.5228L9.7728 13.8575Z" fill="white"/>
</g>
<defs>
<clipPath id="clip0_5_145">
<rect width="18" height="18" fill="white" transform="translate(0.772797 0.357513)"/>
</clipPath>
</defs>
</svg>
