<svg width="19" height="19" viewBox="0 0 19 19" fill="none" xmlns="http://www.w3.org/2000/svg">
<g clip-path="url(#clip0_5_136)">
<path d="M9.7728 2.03976C5.6328 2.03976 2.2728 5.39976 2.2728 9.53976C2.2728 13.6798 5.6328 17.0398 9.7728 17.0398C13.9128 17.0398 17.2728 13.6798 17.2728 9.53976C17.2728 5.39976 13.9128 2.03976 9.7728 2.03976ZM10.8303 14.1073V15.5398H8.8278V14.0923C7.5453 13.8223 6.4578 12.9973 6.3753 11.5423H7.8453C7.9203 12.3298 8.4603 12.9448 9.8328 12.9448C11.3028 12.9448 11.6328 12.2098 11.6328 11.7523C11.6328 11.1298 11.3028 10.5448 9.6303 10.1473C7.7703 9.69726 6.4953 8.93226 6.4953 7.39476C6.4953 6.10476 7.5378 5.26476 8.8278 4.98726V3.53976H10.8303V5.00226C12.2253 5.33976 12.9228 6.39726 12.9678 7.54476H11.4978C11.4603 6.71226 11.0178 6.14226 9.8328 6.14226C8.7078 6.14226 8.0328 6.65226 8.0328 7.37226C8.0328 8.00226 8.5203 8.41476 10.0353 8.80476C11.5503 9.19476 13.1703 9.84726 13.1703 11.7373C13.1628 13.1098 12.1353 13.8598 10.8303 14.1073Z" fill="white"/>
</g>
<defs>
<clipPath id="clip0_5_136">
<rect width="18" height="18" fill="white" transform="translate(0.772797 0.539764)"/>
</clipPath>
</defs>
</svg>
