<svg width="19" height="19" viewBox="0 0 19 19" fill="none" xmlns="http://www.w3.org/2000/svg">
<g clip-path="url(#clip0_5_139)">
<path d="M14.1303 3.52776C14.0703 3.52776 14.0103 3.51276 13.9578 3.48276C12.5178 2.74026 11.2728 2.42526 9.78029 2.42526C8.29529 2.42526 6.88529 2.77776 5.60279 3.48276C5.42279 3.58026 5.19779 3.51276 5.09279 3.33276C4.99529 3.15276 5.06279 2.92026 5.24279 2.82276C6.63779 2.06526 8.16779 1.67526 9.78029 1.67526C11.3778 1.67526 12.7728 2.02776 14.3028 2.81526C14.4903 2.91276 14.5578 3.13776 14.4603 3.31776C14.3928 3.45276 14.2653 3.52776 14.1303 3.52776ZM3.39779 7.46526C3.32279 7.46526 3.24779 7.44276 3.18029 7.39776C3.00779 7.27776 2.97029 7.04526 3.09029 6.87276C3.83279 5.82276 4.77779 4.99776 5.90279 4.42026C8.25779 3.20526 11.2728 3.19776 13.6353 4.41276C14.7603 4.99026 15.7053 5.80776 16.4478 6.85026C16.5678 7.01526 16.5303 7.25526 16.3578 7.37526C16.1853 7.49526 15.9528 7.45776 15.8328 7.28526C15.1578 6.34026 14.3028 5.59776 13.2903 5.08026C11.1378 3.97776 8.38529 3.97776 6.24029 5.08776C5.22029 5.61276 4.36529 6.36276 3.69029 7.30776C3.63029 7.41276 3.51779 7.46526 3.39779 7.46526ZM8.08529 16.5178C7.98779 16.5178 7.89029 16.4803 7.82279 16.4053C7.17029 15.7528 6.81779 15.3328 6.31529 14.4253C5.79779 13.5028 5.52779 12.3778 5.52779 11.1703C5.52779 8.94276 7.43279 7.12776 9.77279 7.12776C12.1128 7.12776 14.0178 8.94276 14.0178 11.1703C14.0178 11.3803 13.8528 11.5453 13.6428 11.5453C13.4328 11.5453 13.2678 11.3803 13.2678 11.1703C13.2678 9.35526 11.7003 7.87776 9.77279 7.87776C7.84529 7.87776 6.27779 9.35526 6.27779 11.1703C6.27779 12.2503 6.51779 13.2478 6.97529 14.0578C7.45529 14.9203 7.78529 15.2878 8.36279 15.8728C8.50529 16.0228 8.50529 16.2553 8.36279 16.4053C8.28029 16.4803 8.18279 16.5178 8.08529 16.5178ZM13.4628 15.1303C12.5703 15.1303 11.7828 14.9053 11.1378 14.4628C10.0203 13.7053 9.35279 12.4753 9.35279 11.1703C9.35279 10.9603 9.51779 10.7953 9.72779 10.7953C9.93778 10.7953 10.1028 10.9603 10.1028 11.1703C10.1028 12.2278 10.6428 13.2253 11.5578 13.8403C12.0903 14.2003 12.7128 14.3728 13.4628 14.3728C13.6428 14.3728 13.9428 14.3503 14.2428 14.2978C14.4453 14.2603 14.6403 14.3953 14.6778 14.6053C14.7153 14.8078 14.5803 15.0028 14.3703 15.0403C13.9428 15.1228 13.5678 15.1303 13.4628 15.1303ZM11.9553 16.6753C11.9253 16.6753 11.8878 16.6678 11.8578 16.6603C10.6653 16.3303 9.88529 15.8878 9.06779 15.0853C8.01779 14.0428 7.44029 12.6553 7.44029 11.1703C7.44029 9.95526 8.47529 8.96526 9.75029 8.96526C11.0253 8.96526 12.0603 9.95526 12.0603 11.1703C12.0603 11.9728 12.7578 12.6253 13.6203 12.6253C14.4828 12.6253 15.1803 11.9728 15.1803 11.1703C15.1803 8.34276 12.7428 6.04776 9.74279 6.04776C7.61279 6.04776 5.66279 7.23276 4.78529 9.07026C4.49279 9.67776 4.34279 10.3903 4.34279 11.1703C4.34279 11.7553 4.39529 12.6778 4.84529 13.8778C4.92029 14.0728 4.82279 14.2903 4.62779 14.3578C4.43279 14.4328 4.21529 14.3278 4.14779 14.1403C3.78029 13.1578 3.60029 12.1828 3.60029 11.1703C3.60029 10.2703 3.77279 9.45276 4.11029 8.74026C5.10779 6.64776 7.32029 5.29026 9.74279 5.29026C13.1553 5.29026 15.9303 7.92276 15.9303 11.1628C15.9303 12.3778 14.8953 13.3678 13.6203 13.3678C12.3453 13.3678 11.3103 12.3778 11.3103 11.1628C11.3103 10.3603 10.6128 9.70776 9.75029 9.70776C8.88779 9.70776 8.19029 10.3603 8.19029 11.1628C8.19029 12.4453 8.68529 13.6453 9.59279 14.5453C10.3053 15.2503 10.9878 15.6403 12.0453 15.9328C12.2478 15.9853 12.3603 16.1953 12.3078 16.3903C12.2703 16.5628 12.1128 16.6753 11.9553 16.6753Z" fill="white"/>
</g>
<defs>
<clipPath id="clip0_5_139">
<rect width="18" height="18" fill="white" transform="translate(0.772797 0.175262)"/>
</clipPath>
</defs>
</svg>
